<?xml version="1.0" standalone="no"?>
<!DOCTYPE svg PUBLIC "-//W3C//DTD SVG 20010904//EN"
 "http://www.w3.org/TR/2001/REC-SVG-20010904/DTD/svg10.dtd">
<svg version="1.0" xmlns="http://www.w3.org/2000/svg"
 width="256.000000pt" height="256.000000pt" viewBox="0 0 256.000000 256.000000"
 preserveAspectRatio="xMidYMid meet">
<metadata>
Created by potrace 1.14, written by Peter Selinger 2001-2017
</metadata>
<g transform="translate(0.000000,256.000000) scale(0.100000,-0.100000)"
fill="#000000" stroke="none">
<path d="M1727 1773 c-1 -1 -178 -4 -392 -8 -670 -11 -1328 -25 -1332 -29 -2
-2 3 -19 11 -38 9 -20 12 -38 9 -42 -4 -3 -1 -6 5 -6 10 0 23 -25 21 -44 0 -5
3 -12 8 -15 10 -7 75 -151 76 -168 0 -7 4 -13 9 -13 4 0 8 -6 8 -14 0 -8 14
-41 31 -74 l30 -60 -94 -236 c-52 -129 -92 -237 -89 -240 3 -3 14 -6 24 -6 10
0 18 -4 18 -10 0 -5 5 -10 11 -10 5 0 7 4 4 10 -3 6 1 7 9 4 16 -6 23 -25 9
-23 -18 3 -33 -2 -33 -10 0 -8 23 -8 40 0 14 6 36 4 43 -6 5 -6 7 -3 4 7 -3 9
1 19 9 22 8 3 12 2 9 -3 -3 -5 0 -13 7 -18 24 -15 35 -11 33 12 -2 18 1 22 16
18 10 -3 19 -13 18 -22 0 -10 -2 -11 -6 -3 -2 6 -9 12 -15 12 -6 0 -5 -7 3
-16 12 -14 14 -14 26 2 7 10 13 13 13 8 0 -6 11 -10 24 -10 15 0 22 4 18 10
-3 6 2 5 11 -3 15 -12 17 -11 17 3 0 10 5 14 10 11 6 -4 7 -12 3 -18 -4 -7 1
-6 11 2 9 8 16 10 14 5 -2 -5 0 -10 5 -11 18 -7 26 -2 32 18 7 20 8 20 26 -7
10 -16 19 -23 19 -16 0 7 5 10 10 7 6 -3 10 -1 10 5 0 7 -7 9 -18 5 -12 -4
-14 -3 -6 5 13 13 46 2 37 -13 -3 -5 -1 -7 5 -3 6 3 14 2 17 -4 5 -8 11 -8 20
0 8 7 19 9 24 6 5 -4 13 -1 17 5 4 7 3 9 -3 6 -5 -3 -10 0 -10 8 0 19 2 19 21
-1 13 -13 22 -14 47 -5 17 6 35 9 39 6 5 -3 11 1 13 7 3 8 6 5 6 -6 1 -12 -4
-16 -14 -13 -8 4 -17 1 -21 -6 -4 -7 -4 -9 1 -5 4 4 14 3 22 -3 8 -7 13 -8 13
-1 0 5 14 9 30 8 29 -2 37 4 24 17 -4 3 -15 2 -25 -4 -15 -8 -17 -6 -13 6 4 9
9 13 12 11 3 -3 12 0 20 7 9 7 13 7 9 1 -4 -6 1 -18 11 -26 19 -17 52 -20 52
-6 0 5 -8 7 -19 3 -12 -4 -21 0 -25 11 -5 14 -4 15 8 5 11 -9 15 -9 18 0 3 8
9 6 21 -5 9 -10 17 -13 17 -8 0 6 15 9 33 8 46 -4 49 -5 43 -14 -3 -5 2 -9 10
-9 11 0 9 6 -7 23 l-22 24 26 -13 c15 -6 27 -19 28 -27 0 -10 3 -8 8 5 8 19 8
19 19 0 6 -11 12 -14 12 -7 0 6 4 12 10 12 5 0 7 -8 4 -17 -3 -10 2 -6 11 10
15 26 32 39 20 15 -4 -7 1 -4 11 7 14 17 16 17 11 3 -4 -10 -2 -18 4 -18 6 0
7 -6 3 -12 -6 -10 -5 -10 7 -1 8 6 19 12 24 12 6 1 10 5 10 10 0 5 4 13 9 18
5 5 6 3 2 -4 -4 -8 -1 -13 9 -13 10 0 13 5 9 13 -5 8 -2 8 9 -2 20 -16 23 -25
5 -15 -8 4 -9 3 -5 -2 10 -11 78 -13 71 -2 -3 4 -1 8 5 8 5 0 12 -8 15 -17 3
-10 4 -5 2 12 -4 27 -3 28 10 11 7 -10 10 -24 7 -30 -4 -6 0 -6 9 1 8 7 19 9
23 5 5 -4 5 -1 1 6 -4 7 -12 10 -17 7 -5 -4 -9 -1 -9 4 0 13 -2 13 38 2 20 -6
30 -6 27 0 -3 5 1 6 9 3 9 -3 14 -10 11 -14 -3 -5 0 -12 6 -16 7 -4 9 -3 5 4
-8 14 11 25 27 15 20 -12 37 -12 37 0 0 7 5 5 10 -3 7 -11 10 -12 10 -2 0 16
90 14 103 -2 5 -7 7 -4 3 7 -5 16 4 21 33 18 8 -2 10 2 5 10 -4 8 -3 10 5 5 8
-6 9 -11 1 -21 -8 -9 -4 -11 16 -7 21 4 25 2 19 -9 -7 -12 -6 -11 9 0 15 13
19 13 28 0 8 -11 9 -10 4 4 -3 10 -6 21 -6 24 0 3 -7 -1 -17 -8 -15 -13 -15
-12 -2 8 11 19 15 20 22 8 4 -9 13 -12 19 -9 7 5 8 2 3 -6 -5 -8 -3 -11 6 -8
8 3 13 11 11 17 -1 7 2 9 8 6 6 -4 9 -13 6 -21 -3 -7 0 -16 6 -20 7 -4 8 -3 4
4 -4 7 -1 12 9 12 10 0 13 -5 9 -12 -5 -9 -2 -9 9 1 18 15 23 26 7 16 -6 -4
-7 1 -3 11 4 10 8 13 10 7 3 -7 12 -9 21 -6 15 6 15 4 4 -9 -10 -13 -10 -18
-1 -24 8 -5 9 -3 4 6 -6 10 -3 12 13 8 12 -4 20 -2 16 3 -5 8 10 13 30 10 5
-1 5 6 2 16 -6 14 -4 15 5 6 12 -12 3 -37 -10 -29 -4 3 -8 -1 -8 -8 0 -7 6
-13 13 -13 7 0 11 4 9 7 -3 4 6 8 20 8 16 0 22 -5 18 -12 -4 -6 0 -5 9 2 9 7
22 11 29 10 9 -2 13 5 12 17 -1 11 0 14 3 8 8 -19 24 -16 25 5 0 11 2 12 6 4
3 -7 0 -19 -7 -26 -8 -11 -8 -16 1 -22 8 -5 9 -3 5 5 -5 8 -3 12 5 10 26 -3
39 1 39 12 0 8 -5 8 -15 -1 -10 -9 -15 -9 -15 -1 0 6 5 11 11 11 5 0 7 6 3 12
-5 7 5 3 20 -10 21 -16 32 -19 42 -12 8 8 14 8 19 0 3 -5 1 -10 -6 -10 -7 0
-9 -3 -6 -6 4 -4 13 -1 22 6 14 11 19 7 16 -12 0 -5 4 -8 9 -8 13 0 13 13 1
25 -6 6 -4 15 5 23 9 8 14 9 14 2 0 -6 5 -8 12 -4 7 4 8 3 4 -5 -4 -6 -13 -9
-19 -5 -7 3 -3 -1 7 -10 23 -19 36 -13 31 14 -2 12 0 18 6 15 5 -4 9 -13 9
-21 0 -8 5 -14 11 -14 5 0 7 4 4 10 -3 6 1 7 10 4 13 -5 13 -9 3 -22 -10 -12
-7 -11 15 2 31 21 33 24 11 22 -9 0 -19 6 -21 14 -4 13 -3 13 6 0 10 -13 12
-13 21 0 6 10 10 11 10 3 0 -7 7 -13 16 -13 8 0 13 4 10 8 -3 5 1 9 9 9 8 0
12 -4 9 -9 -3 -4 4 -8 16 -8 13 0 19 4 14 12 -4 6 -3 8 2 5 6 -3 16 -2 24 3 8
5 22 4 34 -2 17 -9 19 -8 9 3 -16 16 -17 33 -2 23 6 -3 4 5 -5 18 -16 25 -16
25 10 20 19 -3 25 -1 20 7 -4 6 -11 9 -16 6 -5 -3 -12 0 -16 6 -4 7 -3 9 3 6
13 -8 33 36 28 62 -2 14 1 18 11 14 17 -6 17 -11 -1 -43 -17 -30 -18 -40 -5
-40 5 0 9 3 9 8 -3 20 2 32 13 26 7 -4 8 -3 4 4 -4 6 -2 21 4 32 6 11 7 20 2
20 -6 0 -12 9 -15 20 -3 11 -1 18 4 14 5 -3 9 0 9 5 0 6 5 11 12 11 9 0 9 -3
0 -12 -16 -16 -15 -25 4 -32 14 -5 15 -4 4 9 -11 13 -8 18 10 17 3 0 6 8 6 18
0 13 -6 17 -20 14 -13 -2 -16 0 -9 7 5 5 19 11 31 12 12 0 19 3 17 6 -3 2 0
10 6 18 6 7 8 13 4 13 -4 0 -2 6 4 14 9 11 8 18 -4 30 -19 19 -5 22 14 4 11
-11 11 -9 2 10 -7 13 -17 20 -24 16 -7 -4 -8 -3 -4 2 5 5 16 9 25 9 14 0 17
11 19 60 3 74 -6 137 -18 129 -13 -8 -11 10 4 25 10 10 9 11 -6 5 -13 -5 -16
-2 -10 12 4 12 3 15 -5 10 -11 -7 -17 6 -13 27 1 4 -5 15 -13 23 -9 8 -12 22
-9 31 4 10 2 14 -4 10 -6 -4 -16 7 -23 26 -7 17 -21 51 -32 74 -20 40 -17 70
4 57 7 -4 8 -2 4 5 -6 9 -11 9 -21 1 -8 -7 -15 -7 -19 -1 -3 5 0 12 6 14 8 3
6 6 -4 6 -10 1 -20 12 -24 25 -14 56 -14 56 -343 53 -166 -1 -303 -3 -304 -4z
m820 -545 c-3 -7 -5 -2 -5 12 0 14 2 19 5 13 2 -7 2 -19 0 -25z m-27 -113 c-7
-8 -9 -15 -4 -15 14 0 -15 -24 -32 -26 -14 -2 -14 -1 0 15 9 10 13 21 9 26 -5
4 -3 5 4 1 6 -3 14 -2 18 4 3 5 9 10 12 10 3 0 0 -7 -7 -15z m-792 -330 c-3
-3 -9 2 -12 12 -6 14 -5 15 5 6 7 -7 10 -15 7 -18z m161 -1 c-6 -8 -15 -12
-18 -8 -3 4 0 9 7 11 6 3 9 10 6 15 -4 7 -2 8 5 4 9 -6 9 -11 0 -22z m38 19
c-4 -3 -3 -11 3 -17 6 -8 3 -12 -10 -12 -15 0 -16 4 -9 18 5 10 13 18 16 18 3
0 3 -3 0 -7z m128 -11 c-3 -3 -11 0 -18 7 -9 10 -8 11 6 5 10 -3 15 -9 12 -12z
m48 3 c-3 -9 -8 -14 -10 -11 -3 3 -2 9 2 15 9 16 15 13 8 -4z m-655 -10 c-3
-3 -15 -7 -27 -10 -11 -2 -26 -7 -31 -10 -5 -3 -7 0 -4 9 3 8 14 13 25 11 10
-2 21 1 25 6 3 6 9 8 12 5 3 -3 3 -8 0 -11z m66 -1 c3 -8 2 -12 -4 -9 -6 3
-10 10 -10 16 0 14 7 11 14 -7z m-532 -16 c-7 -7 -12 -8 -12 -2 0 14 12 26 19
19 2 -3 -1 -11 -7 -17z m101 9 c3 -8 -1 -14 -8 -14 -7 0 -11 6 -8 14 3 7 6 13
8 13 2 0 5 -6 8 -13z m95 4 c11 -7 10 -9 -3 -14 -9 -4 -14 -3 -10 2 3 5 -1 12
-7 14 -7 3 -8 6 -3 6 6 0 16 -3 23 -8z m182 3 c0 -8 -19 -13 -24 -6 -3 5 1 9
9 9 8 0 15 -2 15 -3z m-1070 -14 c8 -5 12 -11 10 -14 -3 -2 -14 2 -24 10 -22
15 -10 19 14 4z m110 -10 c-6 -11 -13 -20 -16 -20 -2 0 0 9 6 20 6 11 13 20
16 20 2 0 0 -9 -6 -20z m129 -2 c1 6 6 12 12 12 8 0 8 -5 -1 -15 -15 -18 -30
-11 -29 13 0 14 2 13 9 -3 5 -11 9 -14 9 -7z m-332 -10 c-3 -8 -6 -5 -6 6 -1
11 2 17 5 13 3 -3 4 -12 1 -19z"/>
<path d="M2370 801 c0 -7 -4 -10 -9 -7 -5 3 -14 -1 -20 -8 -7 -8 -8 -17 -3
-20 6 -3 15 1 22 9 6 7 19 11 28 8 10 -3 13 -1 7 4 -5 4 -13 12 -17 17 -5 5
-8 4 -8 -3z"/>
<path d="M2280 780 c-8 -5 -12 -12 -9 -15 4 -3 12 1 19 10 14 17 11 19 -10 5z"/>
<path d="M423 745 c0 -8 4 -12 9 -9 5 3 6 10 3 15 -9 13 -12 11 -12 -6z"/>
<path d="M852 742 c6 -7 14 -9 17 -5 4 4 10 11 14 14 5 4 -3 6 -16 5 -20 -1
-23 -4 -15 -14z"/>
<path d="M1099 743 c-12 -16 -12 -17 2 -6 9 7 20 9 24 5 5 -4 5 -1 1 6 -9 16
-11 15 -27 -5z"/>
</g>
</svg>
